<svg width="46" height="46" viewBox="0 0 46 46" fill="none" xmlns="http://www.w3.org/2000/svg">
<path d="M5.75 4.3125C4.95609 4.3125 4.3125 4.95609 4.3125 5.75C4.3125 6.54391 4.95609 7.1875 5.75 7.1875L5.75 4.3125ZM10.5417 5.75L11.9362 5.40136C11.7763 4.76143 11.2013 4.3125 10.5417 4.3125V5.75ZM36.4167 32.1042C37.2106 32.1042 37.8542 31.4606 37.8542 30.6667C37.8542 29.8728 37.2106 29.2292 36.4167 29.2292V32.1042ZM40.25 9.58333L41.6446 9.93198C41.7519 9.50254 41.6555 9.04758 41.383 8.69868C41.1106 8.34977 40.6927 8.14583 40.25 8.14583V9.58333ZM36.4167 24.9167V26.3542C37.0763 26.3542 37.6513 25.9052 37.8112 25.2653L36.4167 24.9167ZM5.75 7.1875H10.5417V4.3125H5.75L5.75 7.1875ZM9.14709 6.09864L10.1054 9.93198L12.8946 9.23469L11.9362 5.40136L9.14709 6.09864ZM10.1054 9.93198L13.9388 25.2653L16.7279 24.568L12.8946 9.23469L10.1054 9.93198ZM15.3333 23.4792H14.375V26.3542H15.3333V23.4792ZM14.375 32.1042H36.4167V29.2292H14.375V32.1042ZM10.0625 27.7917C10.0625 30.1734 11.9933 32.1042 14.375 32.1042V29.2292C13.5811 29.2292 12.9375 28.5856 12.9375 27.7917H10.0625ZM14.375 23.4792C11.9933 23.4792 10.0625 25.4099 10.0625 27.7917H12.9375C12.9375 26.9978 13.5811 26.3542 14.375 26.3542V23.4792ZM11.5 11.0208H40.25V8.14583H11.5V11.0208ZM38.8554 9.23469L35.0221 24.568L37.8112 25.2653L41.6446 9.93198L38.8554 9.23469ZM36.4167 23.4792H15.3333V26.3542H36.4167V23.4792ZM34.9792 38.3333C34.9792 38.598 34.7646 38.8125 34.5 38.8125V41.6875C36.3525 41.6875 37.8542 40.1858 37.8542 38.3333H34.9792ZM34.5 38.8125C34.2354 38.8125 34.0208 38.598 34.0208 38.3333H31.1458C31.1458 40.1858 32.6475 41.6875 34.5 41.6875V38.8125ZM34.0208 38.3333C34.0208 38.0687 34.2354 37.8542 34.5 37.8542V34.9792C32.6475 34.9792 31.1458 36.4809 31.1458 38.3333H34.0208ZM34.5 37.8542C34.7646 37.8542 34.9792 38.0687 34.9792 38.3333H37.8542C37.8542 36.4809 36.3525 34.9792 34.5 34.9792V37.8542ZM15.8125 38.3333C15.8125 38.598 15.598 38.8125 15.3333 38.8125V41.6875C17.1858 41.6875 18.6875 40.1858 18.6875 38.3333H15.8125ZM15.3333 38.8125C15.0687 38.8125 14.8542 38.598 14.8542 38.3333H11.9792C11.9792 40.1858 13.4809 41.6875 15.3333 41.6875V38.8125ZM14.8542 38.3333C14.8542 38.0687 15.0687 37.8542 15.3333 37.8542V34.9792C13.4809 34.9792 11.9792 36.4809 11.9792 38.3333H14.8542ZM15.3333 37.8542C15.598 37.8542 15.8125 38.0687 15.8125 38.3333H18.6875C18.6875 36.4809 17.1858 34.9792 15.3333 34.9792V37.8542Z" fill="white"/>
</svg>
